<?xml version="1.0" encoding="UTF-8"?>
<svg version="1.1" xmlns="http://www.w3.org/2000/svg" width="1024" height="1024">
<path d="M0 0 C3.36303115 2.48571867 4.75346103 4.04569185 5.80322266 8.10913086 C6.05100337 13.00848718 4.89475553 16.55383515 3.2734375 21.12890625 C2.97440018 22.01451736 2.67536285 22.90012848 2.36726379 23.81257629 C1.72001483 25.72873227 1.06672136 27.64285491 0.40805054 29.55511475 C-1.36794973 34.72535261 -3.08547432 39.91483352 -4.80078125 45.10546875 C-5.33166603 46.71038177 -5.33166603 46.71038177 -5.87327576 48.34771729 C-27.80876768 115.13102142 -42.32895398 184.55166107 -51.4375 254.1875 C-51.56941742 255.19343201 -51.70133484 256.19936401 -51.83724976 257.23577881 C-52.20840118 260.08748189 -52.57273244 262.93994692 -52.93359375 265.79296875 C-53.09707306 267.06041679 -53.09707306 267.06041679 -53.26385498 268.35346985 C-53.78988382 272.60033775 -54.1179329 276.70992083 -54 281 C-52.98421875 280.2265625 -51.9684375 279.453125 -50.921875 278.65625 C-42.78178602 272.48635465 -34.5587471 266.58083252 -26 261 C-24.86331281 260.23887319 -23.72795283 259.47576149 -22.59375 258.7109375 C19.55639713 230.3082581 64.19488105 205.37724547 110.5 184.4375 C111.16712006 184.13545654 111.83424011 183.83341309 112.52157593 183.5222168 C133.51104517 174.04107024 133.51104517 174.04107024 140 176 C143.3302684 178.46150273 144.75019822 180.00606195 145.76391602 184.03955078 C146.06548639 189.0985731 145.09470593 193.34693291 143.90234375 198.2421875 C143.67290573 199.2300676 143.44346771 200.21794769 143.20707703 201.23576355 C142.71522532 203.35176877 142.218331 205.46660708 141.71685791 207.58035278 C140.40017971 213.14646062 139.1325008 218.72369285 137.86328125 224.30078125 C137.61132996 225.40544235 137.35937866 226.51010345 137.09979248 227.64823914 C130.92536435 254.84886822 127.01275866 282.28745822 124 310 C123.86577637 311.20769043 123.73155273 312.41538086 123.59326172 313.65966797 C116.41215562 381.38022546 123.37363387 454.56547527 145.08740234 519.23876953 C146.31394613 522.94990121 146.64462765 526.13990827 146 530 C143 535.5 143 535.5 140 537 C131.81471331 537.9251184 124.49706119 534.87848108 116.875 532.25 C115.79203644 531.88236038 115.79203644 531.88236038 114.68719482 531.5072937 C89.88501376 523.08396922 65.79284322 512.94029499 42 502 C40.99356445 501.5373877 39.98712891 501.07477539 38.95019531 500.59814453 C24.63604318 493.97696775 10.75055797 486.71776394 -3 479 C-3.86302734 478.51950195 -4.72605469 478.03900391 -5.61523438 477.54394531 C-23.17874612 467.75477292 -40.33304667 457.25096943 -57 446 C-49.02493447 526.06406139 -33.62376414 604.04739399 -10 681 C-9.70079651 681.97477295 -9.40159302 682.9495459 -9.09332275 683.95385742 C-5.70400374 694.98242386 -2.28648297 706.002153 1.1640625 717.01171875 C1.42184982 717.83476501 1.67963715 718.65781128 1.94523621 719.50579834 C2.98752047 722.82300356 4.04387553 726.12994975 5.15625 729.42456055 C6.41549535 733.26824665 6.39112806 735.95834335 6 740 C3.95813516 743.18530916 2.46661258 743.85068397 -1.125 745 C-11.96074996 745 -23.24439802 736.94511651 -32.6875 732.0625 C-33.50913635 731.63926453 -34.33077271 731.21602905 -35.17730713 730.77996826 C-47.73627207 724.3064607 -60.12371618 717.60781981 -72.35058594 710.52392578 C-75.12054204 708.930665 -77.90520238 707.36627129 -80.6953125 705.80859375 C-94.33163944 698.19177214 -107.73616769 690.24825186 -121 682 C-121.90572754 681.43700195 -122.81145508 680.87400391 -123.74462891 680.29394531 C-156.27743404 659.99534899 -188.09716055 638.03290051 -218 614 C-218.6403418 613.4858252 -219.28068359 612.97165039 -219.94042969 612.44189453 C-228.52235922 605.53777578 -237.01262475 598.53394933 -245.38476562 591.37695312 C-247.04834543 589.95878654 -248.71895876 588.54924683 -250.390625 587.140625 C-257.26728203 581.32459506 -263.95367113 575.34578711 -270.49951172 569.15893555 C-273.77610651 566.06263185 -277.09332472 563.03099597 -280.47265625 560.046875 C-287.08866941 554.11053764 -293.34034171 547.80938259 -299.61450195 541.51586914 C-301.69044426 539.43454811 -303.77170422 537.35865187 -305.85351562 535.28320312 C-307.19823752 533.93782062 -308.54264929 532.59212806 -309.88671875 531.24609375 C-310.49730637 530.63753036 -311.10789398 530.02896698 -311.73698425 529.40196228 C-315.46235286 525.65661714 -318.99935607 521.79195237 -322.44798279 517.79013062 C-324.69605997 515.1971492 -327.03589083 512.69870579 -329.375 510.1875 C-333.64839971 505.56219047 -337.68883729 500.79918099 -341.63671875 495.890625 C-343.79347349 493.25261094 -346.002601 490.67680244 -348.2409668 488.10864258 C-355.01851855 480.32229814 -361.29612125 472.2140505 -367.50537109 463.97070312 C-368.83871953 462.21265207 -370.18784004 460.46951855 -371.55078125 458.734375 C-390.06690531 435.09676982 -406.30720145 409.59837985 -421.42285156 383.68457031 C-422.43579615 381.96036928 -423.47245892 380.24976523 -424.53808594 378.55761719 C-426.98830537 374.53581841 -428.88153848 371.05006484 -428.52929688 366.16210938 C-427.33780774 361.29503013 -424.72442032 357.06347426 -422.25 352.75 C-421.65872314 351.69224365 -421.06744629 350.6344873 -420.45825195 349.54467773 C-418.66092561 346.34988398 -416.83665907 343.1723192 -415 340 C-414.4932373 339.12166504 -413.98647461 338.24333008 -413.46435547 337.33837891 C-407.48733334 327.04360311 -401.14022143 316.97948851 -394.75 306.9375 C-394.1005542 305.91470947 -393.4511084 304.89191895 -392.78198242 303.83813477 C-388.42300653 297.04034646 -383.79081638 290.49847915 -379 284 C-378.15876976 282.82315489 -377.32086045 281.64391873 -376.48828125 280.4609375 C-365.93766412 265.49686652 -354.67290465 251.10229089 -343 237 C-342.51789063 236.41734375 -342.03578125 235.8346875 -341.5390625 235.234375 C-335.70678929 228.20986915 -329.68698592 221.39463975 -323.48046875 214.69921875 C-321.45958243 212.50011253 -319.49829037 210.27326473 -317.5625 208 C-314.00959861 203.88656805 -310.1490441 200.09349093 -306.26196289 196.29882812 C-303.2638425 193.35220498 -300.6146961 190.28498896 -298 187 C-296.92667838 186.00724247 -295.82149857 185.04784021 -294.6875 184.125 C-290.39575732 180.46936928 -286.46183663 176.50418058 -282.5 172.5 C-277.49023654 167.45184054 -272.4563357 162.566933 -267 158 C-265.37233632 156.60524391 -263.74834544 155.20626308 -262.12402344 153.80761719 C-259.6830759 151.70879707 -257.23439417 149.61908779 -254.78613281 147.52880859 C-253.12117836 146.10372046 -251.46223918 144.67196522 -249.8046875 143.23828125 C-241.88322067 136.41791571 -233.66746184 130.03464202 -225.31835938 123.74755859 C-222.93156995 121.94841804 -220.55153319 120.14059053 -218.171875 118.33203125 C-200.2901121 104.78187551 -181.94233719 92.02286247 -163 80 C-162.1745166 79.47583496 -161.3490332 78.95166992 -160.49853516 78.41162109 C-113.32497047 48.58060401 -63.34172265 22.85923883 -12 1 C-11.10369873 0.60699707 -10.20739746 0.21399414 -9.28393555 -0.19091797 C-5.8332934 -1.41330472 -3.50304053 -0.93831443 0 0 Z " fill="#707070" transform="translate(653,140)"/>
<path d="M0 0 C3.3302684 2.46150273 4.75019822 4.00606195 5.76391602 8.03955078 C6.06548639 13.0985731 5.09470593 17.34693291 3.90234375 22.2421875 C3.67290573 23.2300676 3.44346771 24.21794769 3.20707703 25.23576355 C2.71522532 27.35176877 2.218331 29.46660708 1.71685791 31.58035278 C0.40017971 37.14646062 -0.8674992 42.72369285 -2.13671875 48.30078125 C-2.38867004 49.40544235 -2.64062134 50.51010345 -2.90020752 51.64823914 C-9.07463565 78.84886822 -12.98724134 106.28745822 -16 134 C-16.13422363 135.20769043 -16.26844727 136.41538086 -16.40673828 137.65966797 C-23.58784438 205.38022546 -16.62636613 278.56547527 5.08740234 343.23876953 C6.31394613 346.94990121 6.64462765 350.13990827 6 354 C3 359.5 3 359.5 0 361 C-8.18528669 361.9251184 -15.50293881 358.87848108 -23.125 356.25 C-23.84697571 356.00490692 -24.56895142 355.75981384 -25.31280518 355.5072937 C-50.11498624 347.08396922 -74.20715678 336.94029499 -98 326 C-99.00643555 325.5373877 -100.01287109 325.07477539 -101.04980469 324.59814453 C-115.36395682 317.97696775 -129.24944203 310.71776394 -143 303 C-143.86302734 302.51950195 -144.72605469 302.03900391 -145.61523438 301.54394531 C-156.13395832 295.68124521 -166.4677708 289.55767694 -176.6875 283.1875 C-177.66702637 282.57737061 -178.64655273 281.96724121 -179.65576172 281.33862305 C-181.53569278 280.15663528 -183.4071997 278.96112415 -185.26928711 277.7512207 C-187.10890385 276.5714647 -188.9785946 275.43748896 -190.87329102 274.34838867 C-197.41872035 270.35641852 -197.41872035 270.35641852 -198.95239258 266.77758789 C-199.41658006 264.12451864 -199.54043389 261.63073942 -199.5625 258.9375 C-199.60874512 257.93130615 -199.65499023 256.9251123 -199.70263672 255.88842773 C-199.79573322 253.71126166 -199.86661537 251.53305405 -199.91748047 249.35449219 C-199.99833407 246.06772151 -200.14786631 242.79114735 -200.31640625 239.5078125 C-200.65063725 232.46262806 -200.82979883 225.41732762 -200.95709229 218.36584473 C-200.9866898 216.73389738 -201.01800372 215.10198057 -201.05072021 213.47009277 C-201.68644141 181.30126518 -200.30726746 149.46339698 -197.23301697 117.43081665 C-197.08100899 115.84508007 -196.9432524 114.25789363 -196.8217926 112.66952515 C-196.34844313 107.49818674 -196.34844313 107.49818674 -194.69848633 105.13916016 C-194.14443115 104.73487793 -193.59037598 104.3305957 -193.01953125 103.9140625 C-192.38611816 103.43614258 -191.75270508 102.95822266 -191.10009766 102.46582031 C-190.06054932 101.74023926 -190.06054932 101.74023926 -189 101 C-188.28763184 100.47760742 -187.57526367 99.95521484 -186.84130859 99.41699219 C-184.47808288 97.70374262 -182.08827461 96.03518238 -179.6875 94.375 C-178.81230713 93.76672363 -177.93711426 93.15844727 -177.03540039 92.53173828 C-130.43352194 60.24788669 -81.17351392 31.80489983 -29.5 8.4375 C-28.83287994 8.13545654 -28.16575989 7.83341309 -27.47842407 7.5222168 C-6.48895483 -1.95892976 -6.48895483 -1.95892976 0 0 Z " fill="#A1A1A1" transform="translate(793,316)"/>
</svg>
